<svg width="155" height="16" viewBox="0 0 155 16" fill="none" xmlns="http://www.w3.org/2000/svg">
<path d="M29.7079 9.91599V13.24H27.9079V11.5H21.9799V13.24H20.1799L20.1919 9.91599H20.5279C21.0319 9.89999 21.3879 9.53199 21.5959 8.81199C21.8039 8.09199 21.9319 7.06399 21.9799 5.72799L22.0759 3.1H28.5319V9.91599H29.7079ZM23.6959 5.90799C23.6559 6.90799 23.5719 7.74799 23.4439 8.42799C23.3159 9.09999 23.1199 9.59599 22.8559 9.91599H26.6119V4.684H23.7319L23.6959 5.90799Z" fill="white"/>
<path d="M35.0246 11.644C34.1526 11.644 33.3646 11.456 32.6606 11.08C31.9646 10.704 31.4166 10.188 31.0166 9.53199C30.6246 8.86799 30.4286 8.12399 30.4286 7.29999C30.4286 6.47599 30.6246 5.73599 31.0166 5.08C31.4166 4.416 31.9646 3.896 32.6606 3.52C33.3646 3.144 34.1526 2.956 35.0246 2.956C35.8966 2.956 36.6806 3.144 37.3766 3.52C38.0726 3.896 38.6206 4.416 39.0206 5.08C39.4206 5.73599 39.6206 6.47599 39.6206 7.29999C39.6206 8.12399 39.4206 8.86799 39.0206 9.53199C38.6206 10.188 38.0726 10.704 37.3766 11.08C36.6806 11.456 35.8966 11.644 35.0246 11.644ZM35.0246 9.98799C35.5206 9.98799 35.9686 9.87599 36.3686 9.65199C36.7686 9.41999 37.0806 9.09999 37.3046 8.69199C37.5366 8.28399 37.6526 7.81999 37.6526 7.29999C37.6526 6.77999 37.5366 6.31599 37.3046 5.90799C37.0806 5.5 36.7686 5.184 36.3686 4.96C35.9686 4.728 35.5206 4.612 35.0246 4.612C34.5286 4.612 34.0806 4.728 33.6806 4.96C33.2806 5.184 32.9646 5.5 32.7326 5.90799C32.5086 6.31599 32.3966 6.77999 32.3966 7.29999C32.3966 7.81999 32.5086 8.28399 32.7326 8.69199C32.9646 9.09999 33.2806 9.41999 33.6806 9.65199C34.0806 9.87599 34.5286 9.98799 35.0246 9.98799Z" fill="white"/>
<path d="M44.7541 3.1C45.4981 3.1 46.1421 3.224 46.6861 3.472C47.2381 3.72 47.6621 4.072 47.9581 4.528C48.2541 4.98399 48.4021 5.52399 48.4021 6.14799C48.4021 6.76399 48.2541 7.30399 47.9581 7.76799C47.6621 8.22399 47.2381 8.57599 46.6861 8.82399C46.1421 9.06399 45.4981 9.18399 44.7541 9.18399H43.0621V11.5H41.1181V3.1H44.7541ZM44.6461 7.59999C45.2301 7.59999 45.6741 7.47599 45.9781 7.22799C46.2821 6.97199 46.4341 6.61199 46.4341 6.14799C46.4341 5.67599 46.2821 5.316 45.9781 5.068C45.6741 4.812 45.2301 4.684 44.6461 4.684H43.0621V7.59999H44.6461Z" fill="white"/>
<path d="M53.7737 11.644C52.9177 11.644 52.1417 11.46 51.4457 11.092C50.7577 10.716 50.2137 10.2 49.8137 9.54399C49.4217 8.87999 49.2257 8.13199 49.2257 7.29999C49.2257 6.46799 49.4217 5.72399 49.8137 5.068C50.2137 4.404 50.7577 3.888 51.4457 3.52C52.1417 3.144 52.9217 2.956 53.7857 2.956C54.5137 2.956 55.1697 3.084 55.7537 3.34C56.3457 3.596 56.8417 3.964 57.2417 4.444L55.9937 5.59599C55.4257 4.94 54.7217 4.612 53.8817 4.612C53.3617 4.612 52.8977 4.728 52.4897 4.96C52.0817 5.184 51.7617 5.5 51.5297 5.90799C51.3057 6.31599 51.1937 6.77999 51.1937 7.29999C51.1937 7.81999 51.3057 8.28399 51.5297 8.69199C51.7617 9.09999 52.0817 9.41999 52.4897 9.65199C52.8977 9.87599 53.3617 9.98799 53.8817 9.98799C54.7217 9.98799 55.4257 9.65599 55.9937 8.99199L57.2417 10.144C56.8417 10.632 56.3457 11.004 55.7537 11.26C55.1617 11.516 54.5017 11.644 53.7737 11.644Z" fill="white"/>
<path d="M64.8467 4.684H62.1587V11.5H60.2387V4.684H57.5627V3.1H64.8467V4.684Z" fill="white"/>
<path d="M69.7033 3.1C70.4473 3.1 71.0913 3.224 71.6353 3.472C72.1873 3.72 72.6113 4.072 72.9073 4.528C73.2033 4.98399 73.3513 5.52399 73.3513 6.14799C73.3513 6.76399 73.2033 7.30399 72.9073 7.76799C72.6113 8.22399 72.1873 8.57599 71.6353 8.82399C71.0913 9.06399 70.4473 9.18399 69.7033 9.18399H68.0113V11.5H66.0673V3.1H69.7033ZM69.5953 7.59999C70.1793 7.59999 70.6233 7.47599 70.9273 7.22799C71.2313 6.97199 71.3833 6.61199 71.3833 6.14799C71.3833 5.67599 71.2313 5.316 70.9273 5.068C70.6233 4.812 70.1793 4.684 69.5953 4.684H68.0113V7.59999H69.5953Z" fill="white"/>
<path d="M78.7589 11.644C77.8869 11.644 77.0989 11.456 76.3949 11.08C75.6989 10.704 75.1509 10.188 74.7509 9.53199C74.3589 8.86799 74.1629 8.12399 74.1629 7.29999C74.1629 6.47599 74.3589 5.73599 74.7509 5.08C75.1509 4.416 75.6989 3.896 76.3949 3.52C77.0989 3.144 77.8869 2.956 78.7589 2.956C79.6309 2.956 80.4149 3.144 81.1109 3.52C81.8069 3.896 82.3549 4.416 82.7549 5.08C83.1549 5.73599 83.3549 6.47599 83.3549 7.29999C83.3549 8.12399 83.1549 8.86799 82.7549 9.53199C82.3549 10.188 81.8069 10.704 81.1109 11.08C80.4149 11.456 79.6309 11.644 78.7589 11.644ZM78.7589 9.98799C79.2549 9.98799 79.7029 9.87599 80.1029 9.65199C80.5029 9.41999 80.8149 9.09999 81.0389 8.69199C81.2709 8.28399 81.3869 7.81999 81.3869 7.29999C81.3869 6.77999 81.2709 6.31599 81.0389 5.90799C80.8149 5.5 80.5029 5.184 80.1029 4.96C79.7029 4.728 79.2549 4.612 78.7589 4.612C78.2629 4.612 77.8149 4.728 77.4149 4.96C77.0149 5.184 76.6989 5.5 76.4669 5.90799C76.2429 6.31599 76.1309 6.77999 76.1309 7.29999C76.1309 7.81999 76.2429 8.28399 76.4669 8.69199C76.6989 9.09999 77.0149 9.41999 77.4149 9.65199C77.8149 9.87599 78.2629 9.98799 78.7589 9.98799Z" fill="white"/>
<path d="M84.8525 3.1H86.7845V8.57199L90.7925 3.1H92.6165V11.5H90.6965V6.03999L86.6885 11.5H84.8525V3.1ZM88.7285 2.56C87.1925 2.56 86.4165 1.948 86.4005 0.723999H87.7325C87.7485 1.308 88.0805 1.6 88.7285 1.6C89.0485 1.6 89.2925 1.528 89.4605 1.384C89.6285 1.232 89.7165 1.012 89.7245 0.723999H91.0565C91.0485 1.324 90.8525 1.78 90.4685 2.092C90.0845 2.404 89.5045 2.56 88.7285 2.56Z" fill="white"/>
<path d="M102.352 11.5L102.34 6.47199L99.8679 10.612H99.0039L96.5319 6.56799V11.5H94.7079V3.1H96.3159L99.4599 8.31999L102.556 3.1H104.164L104.176 11.5H102.352Z" fill="white"/>
<path d="M110.271 11.644C109.399 11.644 108.611 11.456 107.907 11.08C107.211 10.704 106.663 10.188 106.263 9.53199C105.871 8.86799 105.675 8.12399 105.675 7.29999C105.675 6.47599 105.871 5.73599 106.263 5.08C106.663 4.416 107.211 3.896 107.907 3.52C108.611 3.144 109.399 2.956 110.271 2.956C111.143 2.956 111.927 3.144 112.623 3.52C113.319 3.896 113.867 4.416 114.267 5.08C114.667 5.73599 114.867 6.47599 114.867 7.29999C114.867 8.12399 114.667 8.86799 114.267 9.53199C113.867 10.188 113.319 10.704 112.623 11.08C111.927 11.456 111.143 11.644 110.271 11.644ZM110.271 9.98799C110.767 9.98799 111.215 9.87599 111.615 9.65199C112.015 9.41999 112.327 9.09999 112.551 8.69199C112.783 8.28399 112.899 7.81999 112.899 7.29999C112.899 6.77999 112.783 6.31599 112.551 5.90799C112.327 5.5 112.015 5.184 111.615 4.96C111.215 4.728 110.767 4.612 110.271 4.612C109.775 4.612 109.327 4.728 108.927 4.96C108.527 5.184 108.211 5.5 107.979 5.90799C107.755 6.31599 107.643 6.77999 107.643 7.29999C107.643 7.81999 107.755 8.28399 107.979 8.69199C108.211 9.09999 108.527 9.41999 108.927 9.65199C109.327 9.87599 109.775 9.98799 110.271 9.98799Z" fill="white"/>
<path d="M124.068 3.1V11.5H122.124V8.05599H118.308V11.5H116.364V3.1H118.308V6.41199H122.124V3.1H124.068Z" fill="white"/>
<path d="M132.593 4.684H129.905V11.5H127.985V4.684H125.309V3.1H132.593V4.684Z" fill="white"/>
<path d="M139.079 9.69999H135.179L134.435 11.5H132.443L136.187 3.1H138.107L141.863 11.5H139.823L139.079 9.69999ZM138.467 8.22399L137.135 5.008L135.803 8.22399H138.467Z" fill="white"/>
<path d="M150.164 8.11599H148.94V11.5H147.032V8.11599H145.784L143.9 11.5H141.656L144.176 7.10799L141.812 3.1H143.864L145.748 6.49599H147.032V3.1H148.94V6.49599H150.188L152.084 3.1H154.136L151.784 7.10799L154.292 11.5H152.048L150.164 8.11599Z" fill="white"/>
<path fill-rule="evenodd" clip-rule="evenodd" d="M1.5 0C0.671572 0 0 0.671573 0 1.5V9.16666C0 9.99508 0.671573 10.6667 1.5 10.6667H2.66667V4.16665C2.66667 3.33822 3.33824 2.66665 4.16667 2.66665H10.6667V1.5C10.6667 0.671572 9.99508 0 9.16666 0H1.5ZM5.33332 14.5V13.3333H11.8333C12.6618 13.3333 13.3333 12.6617 13.3333 11.8333V5.33334H14.5C15.3284 5.33334 16 6.00492 16 6.83334V14.5C16 15.3284 15.3284 16 14.5 16H6.83332C6.00489 16 5.33332 15.3284 5.33332 14.5ZM10.6667 9.16663V5.33334H6.83332C6.00489 5.33334 5.33332 6.00492 5.33332 6.83334V10.6666H9.16667C9.9951 10.6666 10.6667 9.99506 10.6667 9.16663Z" fill="#FFB71B"/>
</svg>
